<svg xmlns="http://www.w3.org/2000/svg" width="157" height="30" viewBox="0 0 157 30" fill="none">
<path d="M55.8143 21.5175C56.5755 21.408 57.0576 21.3111 57.2606 21.2269C57.582 21.0752 57.7808 20.8183 57.8569 20.4561L61.5615 2.86815H62.5003L69.5161 18.2955L76.3162 2.86815H77.179L80.7439 19.2052C80.9469 20.1992 81.2007 20.8183 81.5051 21.0626C81.6743 21.2058 81.8942 21.3026 82.1649 21.3532C82.4355 21.4038 82.7907 21.4585 83.2305 21.5175V22.5662H76.0117V21.5175C76.9083 21.3743 77.4538 21.2479 77.6483 21.1384C77.9613 20.9699 78.1177 20.6498 78.1177 20.1781C78.1177 20.0518 78.1051 19.9044 78.0797 19.7359L78.0163 19.2052L75.9737 8.6171L69.5034 23.1979H68.6534L62.0562 8.6171L59.8741 20.0012C59.8488 20.1529 59.836 20.3045 59.836 20.4561C59.836 20.5993 59.8741 20.7341 59.9502 20.8604C60.0263 20.9868 60.1574 21.0921 60.3435 21.1763C60.6987 21.3364 61.3458 21.4501 62.2846 21.5175V22.5662H55.8143V21.5175ZM85.7679 2.26167L88.0769 0L90.3352 2.26167L88.0769 4.5486L85.7679 2.26167ZM84.7149 21.5175L85.159 21.4543C85.5226 21.4038 85.8186 21.3532 86.047 21.3026C86.2754 21.2437 86.453 21.1426 86.5798 20.9994C86.7998 20.7383 86.9097 20.1402 86.9097 19.2052V10.6387C86.9097 9.67843 86.8082 9.10142 86.6052 8.9077C86.4023 8.70555 86.157 8.57919 85.8694 8.52865C85.5818 8.47811 85.197 8.43177 84.7149 8.38966V7.30304H91.6546V8.38966C91.1725 8.4402 90.7877 8.49074 90.5001 8.54127C90.2125 8.59181 89.9926 8.68869 89.8404 8.83187C89.5951 9.05931 89.4725 9.66157 89.4725 10.6387V19.2052C89.4725 20.1655 89.5486 20.7341 89.7008 20.911C89.8531 21.0879 90.0391 21.2058 90.259 21.2648C90.4874 21.3237 90.7877 21.3827 91.1598 21.4416L91.6546 21.5175V22.5662H84.7149V21.5175ZM100.802 21.2521C102.476 21.2521 104.02 20.7088 105.432 19.6222L106.156 20.3171C105.166 21.5133 103.792 22.305 102.032 22.6925C101.474 22.8104 100.916 22.8694 100.358 22.8694C98.1671 22.8694 96.4247 22.0607 95.1308 20.4435C93.9382 18.9357 93.3419 17.0826 93.3419 14.884C93.3419 12.6013 93.9467 10.7145 95.1562 9.22359C96.4586 7.63156 98.2093 6.83554 100.408 6.83554C101.491 6.83554 102.536 7.05035 103.542 7.47994C103.694 7.54734 103.804 7.58521 103.872 7.59364C104.422 7.45046 104.747 7.10932 104.849 6.57023H105.851V11.978H104.798C104.342 9.44256 102.942 8.17485 100.599 8.17485C99.0935 8.17485 97.964 8.86979 97.2113 10.2596C96.5602 11.4389 96.2346 12.9888 96.2346 14.9093C96.2346 18.2029 97.2369 20.2329 99.2415 20.9994C99.6895 21.1679 100.21 21.2521 100.802 21.2521ZM108.452 21.5175L108.883 21.4543C109.653 21.3532 110.118 21.2142 110.279 21.0373C110.516 20.7678 110.634 20.1571 110.634 19.2052V4.27063C110.634 3.3188 110.533 2.74601 110.33 2.55227C110.135 2.35854 109.894 2.2364 109.607 2.18586C109.319 2.1269 108.934 2.07636 108.452 2.03424V0.960263H115.404V2.03424C114.922 2.08478 114.537 2.13532 114.25 2.18586C113.962 2.2364 113.743 2.33327 113.59 2.47647C113.336 2.70389 113.21 3.30195 113.21 4.27063V19.2052C113.21 20.1655 113.285 20.7383 113.438 20.9236C113.598 21.1005 113.789 21.2184 114.009 21.2774C114.237 21.3279 114.542 21.3827 114.922 21.4416L115.404 21.5175V22.5662H108.452V21.5175ZM114.098 14.3534L118.221 10.386L118.55 10.0828C118.661 9.98166 118.766 9.88058 118.868 9.7795L119.147 9.47628C119.333 9.27413 119.426 9.10985 119.426 8.98349C119.426 8.84873 119.38 8.74342 119.287 8.66764C119.202 8.58338 119.088 8.52441 118.944 8.49074C118.707 8.42334 118.377 8.38966 117.954 8.38966V7.29042H124.678V8.31383C123.274 8.46549 122.107 9.00878 121.177 9.94378L117.295 13.8606L125.072 24.6509L124.209 25.3711L114.098 14.3534ZM138.291 20.6835C137.133 22.1071 135.395 22.8189 133.077 22.8189C130.844 22.8189 129.097 22.0987 127.837 20.6583C126.628 19.2684 126.023 17.4321 126.023 15.1494C126.023 12.7993 126.696 10.8577 128.04 9.32467C129.377 7.80846 131.089 7.05035 133.179 7.05035C134.777 7.05035 136.025 7.3873 136.921 8.06115C137.775 8.69289 138.202 9.56049 138.202 10.664C138.202 12.0875 137.509 13.2879 136.122 14.2649C134.507 15.4021 132.062 15.9833 128.789 16.0086C129.085 19.4537 130.65 21.1763 133.483 21.1763C135.259 21.1763 136.621 20.772 137.568 19.9633L138.291 20.6835ZM128.751 14.6566C131.762 14.5977 133.8 13.8859 134.866 12.5213C135.255 12.0159 135.449 11.3884 135.449 10.6387C135.449 9.66157 135.027 8.98772 134.181 8.6171C133.851 8.47388 133.441 8.40229 132.95 8.40229C132.459 8.40229 132.024 8.49074 131.643 8.66764C131.263 8.83611 130.92 9.07194 130.616 9.3752C130.311 9.67 130.045 10.0196 129.817 10.4239C129.588 10.8198 129.398 11.2494 129.245 11.7127C128.933 12.6645 128.768 13.6458 128.751 14.6566ZM152.018 20.2539C151.063 21.7365 149.735 22.8947 148.035 23.7286C146.572 22.9536 145.447 22.1029 144.66 21.1763C143.417 19.6854 142.664 17.4701 142.402 14.5303C142.317 13.5195 142.275 12.555 142.275 11.6369C142.275 10.7187 142.254 10.087 142.212 9.74159C142.169 9.39626 142.085 9.13091 141.958 8.94561C141.84 8.75185 141.666 8.62129 141.438 8.5539C141.218 8.47811 140.922 8.42334 140.549 8.38966V7.30304H146.944V8.38966L146.627 8.42757C146.246 8.47811 145.942 8.53284 145.713 8.59181C145.493 8.64235 145.324 8.74342 145.205 8.89508C145.02 9.14776 144.926 9.80479 144.926 10.8661V12.3318C144.926 13.6206 144.952 14.7367 145.003 15.6801C145.062 16.6235 145.202 17.4616 145.421 18.1944C145.836 19.5927 146.745 20.8436 148.149 21.947C150.746 20.355 152.044 18.127 152.044 15.2631V10.9925C152.044 9.85533 151.963 9.18568 151.803 8.98349C151.65 8.78134 151.46 8.65078 151.232 8.59181C151.012 8.53284 150.712 8.47811 150.331 8.42757L150.026 8.38966V7.30304H156.408V8.37704L156.383 8.38966C155.638 8.45706 155.182 8.61287 155.013 8.85716C154.75 9.23622 154.619 9.98166 154.619 11.0936V16.7414C154.619 20.5067 154.082 23.4127 153.008 25.4596C151.705 27.9529 149.397 29.4607 146.081 29.9829L145.815 28.6562C147.845 28.1593 149.341 27.2411 150.306 25.9018C151.244 24.6046 151.815 22.722 152.018 20.2539Z" fill="#226DB4" fill-opacity="0.9"/>
<path d="M4.29928 14.1721L8.09796 15.1899L4.87475 27.2192L0.0582275 29.9999L4.29928 14.1721Z" fill="#226DB4" fill-opacity="0.9"/>
<path d="M29.7603 12.8516L24.9436 15.6324L12.9146 12.4093L13.9325 8.6106L29.7603 12.8516Z" fill="#F9B21D" fill-opacity="0.9"/>
<path d="M13.9323 8.61054C12.9346 8.34321 11.894 8.275 10.8699 8.40982C9.84587 8.54464 8.85839 8.87985 7.96388 9.39628C7.06936 9.91271 6.28533 10.6004 5.65654 11.4198C5.02775 12.2392 4.56654 13.1745 4.29919 14.1722L8.09787 15.19C8.23154 14.6912 8.46215 14.2235 8.77656 13.8139C9.09094 13.4041 9.48296 13.0602 9.93021 12.802C10.3775 12.5438 10.8712 12.3762 11.3832 12.3088C11.8953 12.2415 12.4156 12.2756 12.9144 12.4092L13.9323 8.61054Z" fill="#F9B21D" fill-opacity="0.9"/>
<path d="M18.7489 5.82959L22.5476 6.84745L19.3243 18.8766L14.5078 21.6574L18.7489 5.82959Z" fill="#F9B21D" fill-opacity="0.9"/>
<path d="M44.2097 4.50913L39.3932 7.28995L27.3641 4.06675L28.3819 0.268066L44.2097 4.50913Z" fill="#226DB4" fill-opacity="0.9"/>
<path d="M28.3819 0.268C27.3842 0.000668441 26.3436 -0.0675281 25.3196 0.067291C24.2955 0.20211 23.308 0.537312 22.4135 1.05375C21.5191 1.57021 20.735 2.25778 20.1062 3.07723C19.4774 3.89668 19.0162 4.83196 18.7489 5.82965L22.5476 6.84751C22.6813 6.34866 22.9118 5.88102 23.2262 5.47129C23.5406 5.06157 23.9326 4.71778 24.3799 4.45956C24.8272 4.20134 25.3209 4.03373 25.8329 3.96633C26.345 3.89892 26.8652 3.93301 27.3641 4.06668L28.3819 0.268Z" fill="#F9B21D" fill-opacity="0.9"/>
</svg>